<svg id="Layer_1" data-name="Layer 1" xmlns="http://www.w3.org/2000/svg" viewBox="0 0 54.43 53.81"><defs><style>.cls-1{fill:#fecc24;}.cls-2,.cls-3,.cls-4{fill:none;stroke:#123d57;stroke-linecap:round;}.cls-2,.cls-3{stroke-miterlimit:10;}.cls-2,.cls-4{stroke-width:0.5px;}.cls-4{stroke-linejoin:round;}</style></defs><g id="theo_hi" data-name="theo hi"><path class="cls-1" d="M293.86,394s2.14-.92,4.29,2.15,10.9,20.56,11.51,23.63,2.15,6.9-7.9,7.21-15.42,1.23-19.57,0-3.83-2.76-3.83-4.6S289,393.73,293.86,394Z" transform="translate(-270.72 -393.82)"/><path class="cls-1" d="M318.88,417a1.51,1.51,0,0,1-.78,1,16.67,16.67,0,0,1-8.42,1.74l-3.07-7.52s5.53.77,5.68.77" transform="translate(-270.72 -393.82)"/><path class="cls-1" d="M282.75,410.69c.08-.07-9.59-.68-11.12.7s-1.92,6.14,5.56,14.58a2.12,2.12,0,0,0,1.8,0c.92-.46,3.76-2.61,3.76-2.61s1.31-1.23-2.22-.92c0,0,3.42-.31,2.55-1.69,0,0-.1-.46-2.71.15,0,0,4.34-1.66,2.15-1.84a5.33,5.33,0,0,0-1.63.18,2,2,0,0,1-1.68-.35L277,417.22h3.1Z" transform="translate(-270.72 -393.82)"/><path class="cls-1" d="M287,427.15V443.2s-3.07,2.76-3.07,3.38,10,.61,10,.61l.86-20Z" transform="translate(-270.72 -393.82)"/><path class="cls-1" d="M294.39,427l-.15,20.39s12.43.62,11.51,0-4.45-3.9-4.45-3.9l.3-16.49Z" transform="translate(-270.72 -393.82)"/><path class="cls-2" d="M293.72,408.29s2.58.61,3-.93" transform="translate(-270.72 -393.82)"/><path class="cls-2" d="M296.77,406c0,1.08,0,1.49,1,1.27a1.69,1.69,0,0,0,.58-.28" transform="translate(-270.72 -393.82)"/><ellipse class="cls-3" cx="21.9" cy="10.76" rx="0.2" ry="0.44"/><ellipse class="cls-3" cx="24.86" cy="10.76" rx="0.2" ry="0.44"/><line class="cls-2" x1="23.55" y1="33.42" x2="22.99" y2="53.28"/><path class="cls-2" d="M277,416.9c.12.17,1.65,1.53,1.65,1.53" transform="translate(-270.72 -393.82)"/><path class="cls-4" d="M280.34,419.9s1.58-.56,1.86,0-2,1.65-2,1.65,2.12-1,2.12-.09a1.94,1.94,0,0,1-2,1.6c-1.4.1,2-.29,1.63.71a8.58,8.58,0,0,1-2.39,1.83" transform="translate(-270.72 -393.82)"/><path class="cls-1" d="M318.05,418a1.5,1.5,0,0,0,.76-1c.57-2.27,2.65-10.64,3.17-11.64.61-1.17,3-2.83,3.16-4.05s-3.61.61-2.55.15,2.09-1.78,1.35-2.61c-.6-.67-3.46,2.15-2.56,1.23s1.09-1.94,0-2.3c-.77-.26-4.81,4.45-4.66,3.53a3.33,3.33,0,0,0-.6-2c-1.66-.77-1.66,6.14-1.66,6.14s-2,7.52-2.11,7.52a6.13,6.13,0,0,0-.21,2.43,3.69,3.69,0,0,0,1.91,2.59C314.93,418.35,318.05,418,318.05,418Z" transform="translate(-270.72 -393.82)"/></g></svg>